<svg id="Layer_1" data-name="Layer 1" xmlns="http://www.w3.org/2000/svg" viewBox="0 0 1366 768"><defs><style>.cls-1{opacity:0.5;}.cls-2{fill:#4e4d55;}.cls-3{fill:#949299;}.cls-4{fill:#fff;}.cls-5{fill:#706f77;}.cls-6{fill:#5c5964;}.cls-7{fill:#c1bbbb;}.cls-8{fill:#ddd8d5;}.cls-9{fill:#b94b4c;}.cls-10{fill:none;stroke:#c1bbbb;stroke-linecap:round;stroke-linejoin:round;stroke-width:2px;}.cls-11{fill:#525157;}.cls-12{opacity:0.75;}</style></defs><title>Webcam_Error</title><g class="cls-1"><rect class="cls-2" x="506.91" y="194.13" width="13" height="71"/><rect class="cls-2" x="573.91" y="216.63" width="11" height="27"/><rect class="cls-2" x="600.91" y="299.63" width="146" height="16"/><rect class="cls-2" x="623.91" y="316.63" width="73" height="16"/><rect class="cls-3" x="519.91" y="194.13" width="2" height="71" transform="translate(1041.81 459.26) rotate(180)"/><path class="cls-3" d="M524.91,265.13h26.7a21.3,21.3,0,0,0,21.3-21.29V215.43a21.3,21.3,0,0,0-21.3-21.3h-26.7Z"/><rect class="cls-4" x="504.91" y="199.63" width="10" height="4"/><rect class="cls-4" x="504.91" y="206.63" width="10" height="4"/><rect class="cls-4" x="504.91" y="213.63" width="10" height="4"/><rect class="cls-4" x="504.91" y="220.63" width="10" height="4"/><rect class="cls-4" x="504.91" y="227.63" width="10" height="4"/><rect class="cls-4" x="504.91" y="234.63" width="10" height="4"/><rect class="cls-4" x="504.91" y="241.63" width="10" height="4"/><rect class="cls-4" x="504.91" y="248.63" width="10" height="4"/><rect class="cls-2" x="796.91" y="187.63" width="35" height="30"/><rect class="cls-5" x="817.91" y="191.63" width="17" height="6"/><rect class="cls-5" x="812.91" y="199.63" width="22" height="6"/><rect class="cls-5" x="805.91" y="207.63" width="29" height="6"/><rect class="cls-4" x="504.91" y="255.63" width="10" height="4"/><path class="cls-6" d="M474.41,165.13h0a34,34,0,0,1,34,34v61a34,34,0,0,1-34,34h0a0,0,0,0,1,0,0v-129A0,0,0,0,1,474.41,165.13Z"/><path class="cls-3" d="M584.91,146.63h169a41,41,0,0,1,41,41v71a41,41,0,0,1-41,41h-169a0,0,0,0,1,0,0v-153A0,0,0,0,1,584.91,146.63Z"/><rect class="cls-5" x="831.91" y="177.63" width="7" height="50" transform="translate(1670.81 405.26) rotate(180)"/><circle class="cls-7" cx="642.41" cy="193.13" r="26"/><circle class="cls-8" cx="642.41" cy="193.13" r="15"/><circle class="cls-7" cx="665.91" cy="224.63" r="12"/><circle class="cls-8" cx="665.91" cy="224.63" r="6"/><circle class="cls-7" cx="674.91" cy="206.63" r="5"/><circle class="cls-8" cx="674.91" cy="206.63" r="2.5"/><rect class="cls-9" x="736.91" y="170.63" width="12" height="12"/><rect class="cls-9" x="579.91" y="159.63" width="5" height="12"/><rect class="cls-5" x="754.91" y="257.63" width="16" height="16" rx="3.39" ry="3.39"/><rect class="cls-5" x="734.91" y="257.63" width="16" height="16" rx="3.39" ry="3.39"/><path class="cls-10" d="M641.7,431.43c0,14.7-6.29,36.62-6.29,48.7,0,38,98.5,51.5,79,2-1.81-4.58-17.69-23.26-17-42,2.5-68.5,133.82-86.07,137.5-12.5,1,20-26,38-47,29a14.41,14.41,0,0,1-9-11,11.86,11.86,0,0,1,.89-6.41,15.76,15.76,0,0,1,12.91-9.4c7.67-.85,15.53.64,20.2,8.81,8,14,6,46,30,43"/><path class="cls-7" d="M865.91,480.37v-2.3H856v-3.44H844.15a4.24,4.24,0,0,0-4.24,4.25v7.57a4.24,4.24,0,0,0,4.24,4.24H856v-3.44h9.95V485H856v-4.59Z"/><path class="cls-7" d="M877.76,459.67A93.2,93.2,0,0,0,868.2,469c-1.28,1.44.84,3.57,2.12,2.13a93.27,93.27,0,0,1,9.56-9.3C881.36,460.55,879.23,458.43,877.76,459.67Z"/><path class="cls-7" d="M890.15,475l-15.14.82c-1.92.11-1.93,3.11,0,3l15.14-.82C892.07,477.86,892.08,474.86,890.15,475Z"/><path class="cls-7" d="M887.33,488.53A49.87,49.87,0,0,0,876,485.47c-1.89-.28-2.71,2.61-.8,2.89a49.87,49.87,0,0,1,11.38,3.06C888.33,492.14,889.1,489.24,887.33,488.53Z"/><path class="cls-7" d="M878.1,502.16a47.27,47.27,0,0,0-7-8c-1.43-1.3-3.56.82-2.12,2.12a43.84,43.84,0,0,1,6.53,7.41C876.61,505.25,879.21,503.75,878.1,502.16Z"/><path class="cls-7" d="M859.63,494.36a25.23,25.23,0,0,0-3.59,9.92,1.5,1.5,0,0,0,3,.44,21.82,21.82,0,0,1,3-8.53C863,494.57,860.63,492.71,859.63,494.36Z"/><path class="cls-7" d="M856.24,459.09a25.52,25.52,0,0,0,2.13,10.33,1.5,1.5,0,0,0,2.76-1.18,22,22,0,0,1-1.91-8.83C859.22,457.5,856.24,457.15,856.24,459.09Z"/><rect class="cls-5" x="714.91" y="257.63" width="16" height="16" rx="3.39" ry="3.39"/><rect class="cls-11" x="623.91" y="333.63" width="36" height="106"/><rect class="cls-7" x="646.91" y="360.63" width="10" height="4"/><rect class="cls-7" x="646.91" y="367.63" width="10" height="4"/><rect class="cls-7" x="646.91" y="374.63" width="10" height="4"/><rect class="cls-7" x="646.91" y="381.63" width="10" height="4"/><rect class="cls-7" x="646.91" y="388.63" width="10" height="4"/><rect class="cls-7" x="646.91" y="395.63" width="10" height="4"/><rect class="cls-7" x="646.91" y="402.63" width="10" height="4"/><rect class="cls-7" x="646.91" y="409.63" width="10" height="4"/></g><g class="cls-12"><path d="M470.76,553.6a13.7,13.7,0,0,1-1.1,5.68,8.27,8.27,0,0,1-3.1,3.71,8.56,8.56,0,0,1-4.69,1.28,8.27,8.27,0,0,1-7.78-5,13,13,0,0,1-1.15-5.51v-1.6a13.6,13.6,0,0,1,1.11-5.65,8.73,8.73,0,0,1,12.49-3.76,8.25,8.25,0,0,1,3.12,3.73,13.74,13.74,0,0,1,1.1,5.68Zm-2.91-1.43a9.91,9.91,0,0,0-1.58-6,5.22,5.22,0,0,0-4.43-2.11,5.16,5.16,0,0,0-4.36,2.11,9.73,9.73,0,0,0-1.63,5.85v1.63a9.92,9.92,0,0,0,1.6,6,5.61,5.61,0,0,0,8.8.12,9.83,9.83,0,0,0,1.6-5.91Z"/><path d="M474.58,555.58a9.66,9.66,0,0,1,.95-4.36,7.12,7.12,0,0,1,2.65-3,7.2,7.2,0,0,1,3.87-1,7,7,0,0,1,5.44,2.33,8.93,8.93,0,0,1,2.08,6.19v.2a9.89,9.89,0,0,1-.92,4.32,7,7,0,0,1-2.64,3,7.28,7.28,0,0,1-3.93,1.07,7,7,0,0,1-5.43-2.33,8.93,8.93,0,0,1-2.07-6.16Zm2.83.33a7,7,0,0,0,1.27,4.4,4.31,4.31,0,0,0,6.81,0,7.71,7.71,0,0,0,1.26-4.71,7.06,7.06,0,0,0-1.28-4.39,4.11,4.11,0,0,0-3.42-1.69,4.05,4.05,0,0,0-3.36,1.66A7.61,7.61,0,0,0,477.41,555.91Z"/><path d="M507.63,555.91a9.83,9.83,0,0,1-1.72,6.06,5.53,5.53,0,0,1-4.66,2.3,6,6,0,0,1-4.71-1.91v7.93h-2.82V547.5h2.57l.14,1.82a5.81,5.81,0,0,1,4.78-2.13,5.61,5.61,0,0,1,4.69,2.24,10,10,0,0,1,1.73,6.22Zm-2.81-.32a7.31,7.31,0,0,0-1.19-4.4,3.84,3.84,0,0,0-3.26-1.61,4.14,4.14,0,0,0-3.83,2.27v7.87A4.14,4.14,0,0,0,500.4,562a3.82,3.82,0,0,0,3.22-1.61A7.91,7.91,0,0,0,504.82,555.59Z"/><path d="M521.42,559.6a2.08,2.08,0,0,0-.86-1.78,8.43,8.43,0,0,0-3-1.09,13.64,13.64,0,0,1-3.39-1.09,4.83,4.83,0,0,1-1.86-1.52,3.65,3.65,0,0,1-.6-2.1,4.29,4.29,0,0,1,1.71-3.43,6.71,6.71,0,0,1,4.38-1.4,6.85,6.85,0,0,1,4.54,1.45,4.58,4.58,0,0,1,1.74,3.7h-2.83a2.57,2.57,0,0,0-1-2,3.73,3.73,0,0,0-2.47-.84,3.84,3.84,0,0,0-2.41.68,2.08,2.08,0,0,0-.87,1.75,1.7,1.7,0,0,0,.81,1.53,9.68,9.68,0,0,0,2.91,1,15.17,15.17,0,0,1,3.42,1.13,5,5,0,0,1,1.94,1.57,3.89,3.89,0,0,1,.63,2.25,4.23,4.23,0,0,1-1.76,3.54,7.47,7.47,0,0,1-4.58,1.33,8.38,8.38,0,0,1-3.5-.7,5.74,5.74,0,0,1-2.39-2,4.72,4.72,0,0,1-.85-2.71H514a2.92,2.92,0,0,0,1.13,2.24,4.44,4.44,0,0,0,2.8.83,4.54,4.54,0,0,0,2.56-.65A2,2,0,0,0,521.42,559.6Z"/><path d="M528.83,562.53a1.69,1.69,0,0,1,.42-1.16,1.87,1.87,0,0,1,2.48,0,1.65,1.65,0,0,1,.43,1.16,1.59,1.59,0,0,1-.43,1.15,1.66,1.66,0,0,1-2.9-1.15Zm2.84-4.85h-2.54l-.2-15.87h3Z"/><path d="M550.73,557l.42,2.92.63-2.63,4.38-15.46h2.46l4.28,15.46.61,2.67.47-3,3.44-15.15h2.94L565,564h-2.66l-4.56-16.14-.35-1.69-.35,1.69L552.32,564h-2.66l-5.36-22.15h2.93Z"/><path d="M580.14,564.27a7.22,7.22,0,0,1-5.45-2.2,8.17,8.17,0,0,1-2.1-5.88v-.52a9.82,9.82,0,0,1,.94-4.38,7.26,7.26,0,0,1,2.62-3,6.61,6.61,0,0,1,3.64-1.09,6.16,6.16,0,0,1,5,2.12,9.14,9.14,0,0,1,1.78,6.05v1.18H575.41a5.84,5.84,0,0,0,1.42,3.93,4.47,4.47,0,0,0,3.46,1.5,4.86,4.86,0,0,0,2.53-.61,6.42,6.42,0,0,0,1.81-1.61l1.72,1.34A6.92,6.92,0,0,1,580.14,564.27Zm-.35-14.77a3.74,3.74,0,0,0-2.86,1.25,6,6,0,0,0-1.43,3.47h8.25V554a5.33,5.33,0,0,0-1.16-3.32A3.53,3.53,0,0,0,579.79,549.5Z"/><path d="M605.39,562a4.1,4.1,0,0,0,2.63-.91,3.25,3.25,0,0,0,1.25-2.29h2.66a5.12,5.12,0,0,1-1,2.7,6.37,6.37,0,0,1-2.39,2,7,7,0,0,1-3.17.76A6.76,6.76,0,0,1,600,562a8.89,8.89,0,0,1-2-6.14v-.47a9.92,9.92,0,0,1,.88-4.28,6.78,6.78,0,0,1,2.54-2.9,7.19,7.19,0,0,1,3.9-1,6.61,6.61,0,0,1,4.6,1.66,5.91,5.91,0,0,1,2,4.31h-2.66a4,4,0,0,0-1.21-2.63,3.81,3.81,0,0,0-2.69-1,4,4,0,0,0-3.33,1.55,7.31,7.31,0,0,0-1.17,4.47v.53a7.09,7.09,0,0,0,1.17,4.38A3.94,3.94,0,0,0,605.39,562Z"/><path d="M625.88,564a5.92,5.92,0,0,1-.39-1.73,6.28,6.28,0,0,1-4.69,2,5.8,5.8,0,0,1-4-1.38,4.45,4.45,0,0,1-1.56-3.49,4.66,4.66,0,0,1,2-4,9.23,9.23,0,0,1,5.5-1.42h2.74v-1.29a3.14,3.14,0,0,0-.88-2.35,3.53,3.53,0,0,0-2.6-.88,4.09,4.09,0,0,0-2.53.76,2.24,2.24,0,0,0-1,1.84h-2.83a3.86,3.86,0,0,1,.88-2.38,5.93,5.93,0,0,1,2.37-1.82,8.1,8.1,0,0,1,3.29-.67,6.49,6.49,0,0,1,4.46,1.43,5.09,5.09,0,0,1,1.68,3.91v7.58a9.19,9.19,0,0,0,.58,3.61V564Zm-4.67-2.14a4.92,4.92,0,0,0,2.51-.69,4.09,4.09,0,0,0,1.72-1.78V556h-2.2q-5.18,0-5.18,3a2.6,2.6,0,0,0,.88,2.07A3.4,3.4,0,0,0,621.21,561.82Z"/><path d="M636,547.5l.09,2.07a6,6,0,0,1,4.93-2.38c3.48,0,5.23,2,5.26,5.89V564h-2.81V553.07a3.77,3.77,0,0,0-.82-2.64,3.28,3.28,0,0,0-2.48-.85,4,4,0,0,0-2.41.73,4.94,4.94,0,0,0-1.61,1.92V564h-2.82V547.5Z"/><path d="M649.55,548,648,547a7.35,7.35,0,0,0,1.46-4.17v-2.19h2.78v2a7.05,7.05,0,0,1-.75,3A6.89,6.89,0,0,1,649.55,548Z"/><path d="M660,543.51v4h3.08v2.17H660V559.9a2.23,2.23,0,0,0,.42,1.48,1.72,1.72,0,0,0,1.4.5,6.4,6.4,0,0,0,1.34-.19V564a8,8,0,0,1-2.17.31,3.51,3.51,0,0,1-2.84-1.14,4.94,4.94,0,0,1-1-3.25V549.67h-3V547.5h3v-4Z"/><path d="M674.65,555.59a9.63,9.63,0,0,1,1.8-6.09,6.1,6.1,0,0,1,9.28-.33v-8.58h2.82V564H686l-.14-1.76a5.72,5.72,0,0,1-4.7,2.07,5.6,5.6,0,0,1-4.66-2.35,9.69,9.69,0,0,1-1.81-6.11Zm2.82.32a7.28,7.28,0,0,0,1.15,4.38,3.75,3.75,0,0,0,3.2,1.59,4.09,4.09,0,0,0,3.91-2.41v-7.56a4.14,4.14,0,0,0-3.88-2.33,3.76,3.76,0,0,0-3.23,1.6A8.05,8.05,0,0,0,677.47,555.91Z"/><path d="M700.37,564.27a7.22,7.22,0,0,1-5.45-2.2,8.17,8.17,0,0,1-2.1-5.88v-.52a9.82,9.82,0,0,1,.94-4.38,7.26,7.26,0,0,1,2.62-3,6.61,6.61,0,0,1,3.64-1.09,6.16,6.16,0,0,1,5,2.12,9.14,9.14,0,0,1,1.78,6.05v1.18H695.64a5.84,5.84,0,0,0,1.42,3.93,4.47,4.47,0,0,0,3.46,1.5,4.86,4.86,0,0,0,2.53-.61,6.42,6.42,0,0,0,1.81-1.61l1.72,1.34A6.92,6.92,0,0,1,700.37,564.27ZM700,549.5a3.74,3.74,0,0,0-2.86,1.25,6,6,0,0,0-1.43,3.47H704V554a5.33,5.33,0,0,0-1.16-3.32A3.53,3.53,0,0,0,700,549.5Z"/><path d="M714.49,543.51v4h3.08v2.17h-3.08V559.9a2.29,2.29,0,0,0,.41,1.48,1.74,1.74,0,0,0,1.4.5,6.32,6.32,0,0,0,1.34-.19V564a7.88,7.88,0,0,1-2.16.31,3.48,3.48,0,0,1-2.84-1.14,4.94,4.94,0,0,1-1-3.25V549.67h-3V547.5h3v-4Z"/><path d="M728.31,564.27a7.22,7.22,0,0,1-5.45-2.2,8.17,8.17,0,0,1-2.1-5.88v-.52a9.82,9.82,0,0,1,.94-4.38,7.3,7.3,0,0,1,2.61-3,6.66,6.66,0,0,1,3.65-1.09,6.17,6.17,0,0,1,5,2.12,9.14,9.14,0,0,1,1.78,6.05v1.18H723.58a5.84,5.84,0,0,0,1.42,3.93,4.47,4.47,0,0,0,3.46,1.5,4.89,4.89,0,0,0,2.53-.61,6.42,6.42,0,0,0,1.81-1.61l1.72,1.34A6.92,6.92,0,0,1,728.31,564.27ZM728,549.5a3.74,3.74,0,0,0-2.86,1.25,6,6,0,0,0-1.43,3.47h8.25V554a5.39,5.39,0,0,0-1.16-3.32A3.53,3.53,0,0,0,728,549.5Z"/><path d="M745.22,562a4.1,4.1,0,0,0,2.63-.91,3.25,3.25,0,0,0,1.25-2.29h2.66a5.19,5.19,0,0,1-1,2.7,6.48,6.48,0,0,1-2.4,2,7,7,0,0,1-3.17.76,6.76,6.76,0,0,1-5.35-2.25,8.89,8.89,0,0,1-2-6.14v-.47a9.92,9.92,0,0,1,.88-4.28,6.78,6.78,0,0,1,2.54-2.9,7.19,7.19,0,0,1,3.9-1,6.61,6.61,0,0,1,4.6,1.66,5.91,5.91,0,0,1,2,4.31H749.1a4,4,0,0,0-1.21-2.63,3.8,3.8,0,0,0-2.69-1,3.93,3.93,0,0,0-3.32,1.55,7.24,7.24,0,0,0-1.18,4.47v.53a7.09,7.09,0,0,0,1.17,4.38A3.94,3.94,0,0,0,745.22,562Z"/><path d="M759.37,543.51v4h3.07v2.17h-3.07V559.9a2.23,2.23,0,0,0,.41,1.48,1.72,1.72,0,0,0,1.4.5,6.4,6.4,0,0,0,1.34-.19V564a7.88,7.88,0,0,1-2.16.31,3.52,3.52,0,0,1-2.85-1.14,4.94,4.94,0,0,1-1-3.25V549.67h-3V547.5h3v-4Z"/><path d="M784.86,564a5.54,5.54,0,0,1-.4-1.73,6.28,6.28,0,0,1-4.69,2,5.8,5.8,0,0,1-4-1.38,4.45,4.45,0,0,1-1.56-3.49,4.66,4.66,0,0,1,1.95-4,9.24,9.24,0,0,1,5.51-1.42h2.73v-1.29a3.14,3.14,0,0,0-.88-2.35,3.51,3.51,0,0,0-2.6-.88,4.11,4.11,0,0,0-2.53.76,2.24,2.24,0,0,0-1,1.84h-2.83a3.86,3.86,0,0,1,.88-2.38,5.93,5.93,0,0,1,2.37-1.82,8.11,8.11,0,0,1,3.3-.67,6.53,6.53,0,0,1,4.46,1.43,5.12,5.12,0,0,1,1.67,3.91v7.58a9.19,9.19,0,0,0,.58,3.61V564Zm-4.68-2.14a4.89,4.89,0,0,0,2.51-.69,4,4,0,0,0,1.72-1.78V556h-2.2q-5.18,0-5.18,3a2.57,2.57,0,0,0,.89,2.07A3.35,3.35,0,0,0,780.18,561.82Z"/><path d="M807.21,562a4.1,4.1,0,0,0,2.63-.91,3.22,3.22,0,0,0,1.25-2.29h2.66a5.11,5.11,0,0,1-1,2.7,6.48,6.48,0,0,1-2.4,2,7,7,0,0,1-3.17.76,6.77,6.77,0,0,1-5.35-2.25,8.94,8.94,0,0,1-2-6.14v-.47a9.92,9.92,0,0,1,.89-4.28,6.76,6.76,0,0,1,2.53-2.9,7.19,7.19,0,0,1,3.9-1,6.64,6.64,0,0,1,4.61,1.66,5.93,5.93,0,0,1,2,4.31h-2.66a3.87,3.87,0,0,0-1.21-2.63,3.8,3.8,0,0,0-2.69-1,3.93,3.93,0,0,0-3.32,1.55,7.24,7.24,0,0,0-1.18,4.47v.53a7.09,7.09,0,0,0,1.17,4.38A4,4,0,0,0,807.21,562Z"/><path d="M827.71,564a5.85,5.85,0,0,1-.4-1.73,6.28,6.28,0,0,1-4.69,2,5.8,5.8,0,0,1-4-1.38,4.45,4.45,0,0,1-1.56-3.49,4.65,4.65,0,0,1,2-4,9.19,9.19,0,0,1,5.5-1.42h2.74v-1.29a3.14,3.14,0,0,0-.89-2.35,3.5,3.5,0,0,0-2.6-.88,4.06,4.06,0,0,0-2.52.76,2.24,2.24,0,0,0-1,1.84H817.4a3.92,3.92,0,0,1,.88-2.38,5.93,5.93,0,0,1,2.37-1.82,8.11,8.11,0,0,1,3.3-.67,6.51,6.51,0,0,1,4.46,1.43,5.12,5.12,0,0,1,1.67,3.91v7.58a9.19,9.19,0,0,0,.58,3.61V564ZM823,561.82a4.92,4.92,0,0,0,2.51-.69,4.14,4.14,0,0,0,1.72-1.78V556h-2.21q-5.17,0-5.17,3a2.56,2.56,0,0,0,.88,2.07A3.38,3.38,0,0,0,823,561.82Z"/><path d="M837.77,547.5l.07,1.82a6.09,6.09,0,0,1,4.89-2.13q3.45,0,4.7,2.65a6.29,6.29,0,0,1,2.14-1.92,6.38,6.38,0,0,1,3.11-.73q5.42,0,5.51,5.74v11h-2.82V553.1a3.81,3.81,0,0,0-.8-2.64,3.53,3.53,0,0,0-2.71-.88,3.69,3.69,0,0,0-2.6.94,3.83,3.83,0,0,0-1.21,2.52V564h-2.83V553.17q0-3.58-3.51-3.59a3.77,3.77,0,0,0-3.79,2.36v12H835.1V547.5Z"/><path d="M869.89,564.27a7.22,7.22,0,0,1-5.45-2.2,8.17,8.17,0,0,1-2.1-5.88v-.52a9.82,9.82,0,0,1,.94-4.38,7.3,7.3,0,0,1,2.61-3,6.66,6.66,0,0,1,3.65-1.09,6.17,6.17,0,0,1,5,2.12,9.14,9.14,0,0,1,1.78,6.05v1.18H865.16a5.84,5.84,0,0,0,1.42,3.93A4.47,4.47,0,0,0,870,562a4.86,4.86,0,0,0,2.53-.61,6.42,6.42,0,0,0,1.81-1.61l1.72,1.34A6.92,6.92,0,0,1,869.89,564.27Zm-.35-14.77a3.74,3.74,0,0,0-2.86,1.25,6,6,0,0,0-1.43,3.47h8.25V554a5.39,5.39,0,0,0-1.16-3.32A3.53,3.53,0,0,0,869.54,549.5Z"/><path d="M888.15,550a8.61,8.61,0,0,0-1.38-.1,3.7,3.7,0,0,0-3.76,2.36V564h-2.82V547.5h2.74l.05,1.9a4.38,4.38,0,0,1,3.92-2.21,2.74,2.74,0,0,1,1.25.22Z"/><path d="M901.06,564a5.54,5.54,0,0,1-.4-1.73,6.28,6.28,0,0,1-4.69,2,5.8,5.8,0,0,1-4-1.38,4.45,4.45,0,0,1-1.56-3.49,4.66,4.66,0,0,1,2-4,9.24,9.24,0,0,1,5.51-1.42h2.73v-1.29a3.14,3.14,0,0,0-.88-2.35,3.51,3.51,0,0,0-2.6-.88,4.11,4.11,0,0,0-2.53.76,2.24,2.24,0,0,0-1,1.84h-2.83a3.86,3.86,0,0,1,.88-2.38,5.93,5.93,0,0,1,2.37-1.82,8.11,8.11,0,0,1,3.3-.67,6.48,6.48,0,0,1,4.45,1.43,5.09,5.09,0,0,1,1.68,3.91v7.58a9.19,9.19,0,0,0,.58,3.61V564Zm-4.68-2.14a4.89,4.89,0,0,0,2.51-.69,4,4,0,0,0,1.72-1.78V556h-2.2q-5.17,0-5.18,3a2.57,2.57,0,0,0,.89,2.07A3.35,3.35,0,0,0,896.38,561.82Z"/><path d="M908.53,562.49a1.75,1.75,0,0,1,.43-1.22,1.63,1.63,0,0,1,1.3-.49,1.69,1.69,0,0,1,1.32.49,1.72,1.72,0,0,1,.45,1.22,1.65,1.65,0,0,1-.45,1.17,1.76,1.76,0,0,1-1.32.47,1.69,1.69,0,0,1-1.3-.47A1.68,1.68,0,0,1,908.53,562.49Z"/><path d="M404.92,596.15v8.67H402V582.67h8.17a8.23,8.23,0,0,1,5.7,1.85,6.29,6.29,0,0,1,2.06,4.92,6.22,6.22,0,0,1-2,5,8.6,8.6,0,0,1-5.78,1.74Zm0-2.39h5.25a5.28,5.28,0,0,0,3.59-1.1,4,4,0,0,0,1.25-3.2,4.14,4.14,0,0,0-1.25-3.17,4.91,4.91,0,0,0-3.42-1.23h-5.42Z"/><path d="M424.9,604.82h-2.81V581.45h2.81Z"/><path d="M436.86,605.13a7.19,7.19,0,0,1-5.45-2.2,8.17,8.17,0,0,1-2.1-5.88v-.52a10,10,0,0,1,.94-4.38,7.33,7.33,0,0,1,2.62-3,6.61,6.61,0,0,1,3.64-1.09,6.16,6.16,0,0,1,5,2.12,9.15,9.15,0,0,1,1.78,6.06v1.17H432.13a5.84,5.84,0,0,0,1.42,3.93,4.47,4.47,0,0,0,3.46,1.5,4.86,4.86,0,0,0,2.53-.61,6.27,6.27,0,0,0,1.81-1.61l1.72,1.34A6.92,6.92,0,0,1,436.86,605.13Zm-.35-14.76a3.75,3.75,0,0,0-2.86,1.24,6,6,0,0,0-1.43,3.48h8.25v-.22a5.33,5.33,0,0,0-1.16-3.32A3.52,3.52,0,0,0,436.51,590.37Z"/><path d="M457.33,604.82a6.19,6.19,0,0,1-.4-1.73,6.26,6.26,0,0,1-4.68,2,5.81,5.81,0,0,1-4-1.38,4.45,4.45,0,0,1-1.56-3.49,4.67,4.67,0,0,1,2-4,9.28,9.28,0,0,1,5.5-1.42h2.74v-1.29a3.18,3.18,0,0,0-.88-2.35,3.54,3.54,0,0,0-2.61-.88,4.14,4.14,0,0,0-2.52.76,2.24,2.24,0,0,0-1,1.84H447a3.91,3.91,0,0,1,.87-2.38,6.13,6.13,0,0,1,2.38-1.82,8.06,8.06,0,0,1,3.29-.67,6.51,6.51,0,0,1,4.46,1.43,5.11,5.11,0,0,1,1.67,3.92V601a9.35,9.35,0,0,0,.58,3.61v.24Zm-4.67-2.14a4.92,4.92,0,0,0,2.51-.69,4.14,4.14,0,0,0,1.72-1.78v-3.37h-2.21c-3.45,0-5.17,1-5.17,3a2.54,2.54,0,0,0,.88,2.07A3.4,3.4,0,0,0,452.66,602.68Z"/><path d="M474.33,600.46a2.09,2.09,0,0,0-.86-1.78,8.27,8.27,0,0,0-3-1.08,14,14,0,0,1-3.39-1.1,4.83,4.83,0,0,1-1.86-1.52,3.65,3.65,0,0,1-.6-2.1,4.29,4.29,0,0,1,1.71-3.43,6.71,6.71,0,0,1,4.38-1.4,6.9,6.9,0,0,1,4.54,1.45,4.6,4.6,0,0,1,1.74,3.7h-2.83a2.57,2.57,0,0,0-1-2,3.72,3.72,0,0,0-2.47-.83,3.84,3.84,0,0,0-2.41.67,2.1,2.1,0,0,0-.87,1.75,1.69,1.69,0,0,0,.81,1.53,9.68,9.68,0,0,0,2.91,1,15.17,15.17,0,0,1,3.42,1.13,5.05,5.05,0,0,1,1.94,1.57,3.92,3.92,0,0,1,.63,2.25,4.23,4.23,0,0,1-1.76,3.54,7.47,7.47,0,0,1-4.58,1.33,8.22,8.22,0,0,1-3.5-.7,5.65,5.65,0,0,1-2.38-2,4.64,4.64,0,0,1-.86-2.71h2.81A2.92,2.92,0,0,0,468,602a5.24,5.24,0,0,0,5.36.18A2,2,0,0,0,474.33,600.46Z"/><path d="M488.27,605.13a7.17,7.17,0,0,1-5.45-2.2,8.17,8.17,0,0,1-2.1-5.88v-.52a10,10,0,0,1,.93-4.38,7.4,7.4,0,0,1,2.62-3,6.64,6.64,0,0,1,3.65-1.09,6.17,6.17,0,0,1,5,2.12,9.2,9.2,0,0,1,1.78,6.06v1.17H483.53a5.84,5.84,0,0,0,1.43,3.93,4.46,4.46,0,0,0,3.46,1.5,4.85,4.85,0,0,0,2.52-.61,6.31,6.31,0,0,0,1.82-1.61l1.72,1.34A6.92,6.92,0,0,1,488.27,605.13Zm-.35-14.76a3.73,3.73,0,0,0-2.86,1.24,6,6,0,0,0-1.44,3.48h8.25v-.22a5.32,5.32,0,0,0-1.15-3.32A3.53,3.53,0,0,0,487.92,590.37Z"/><path d="M513.51,602.83a4,4,0,0,0,2.63-.91,3.22,3.22,0,0,0,1.25-2.29h2.67a5.18,5.18,0,0,1-1,2.7,6.48,6.48,0,0,1-2.4,2,7,7,0,0,1-3.17.76,6.79,6.79,0,0,1-5.35-2.25,8.94,8.94,0,0,1-2-6.14v-.47a9.92,9.92,0,0,1,.88-4.28,6.76,6.76,0,0,1,2.53-2.9,7.22,7.22,0,0,1,3.91-1,6.63,6.63,0,0,1,4.6,1.66,6,6,0,0,1,2,4.31h-2.67a3.87,3.87,0,0,0-1.21-2.63,3.76,3.76,0,0,0-2.68-1,4,4,0,0,0-3.33,1.54,7.3,7.3,0,0,0-1.18,4.47v.53a7.09,7.09,0,0,0,1.17,4.38A4,4,0,0,0,513.51,602.83Z"/><path d="M523.1,596.44a9.62,9.62,0,0,1,.95-4.35,7.09,7.09,0,0,1,2.65-3,7.2,7.2,0,0,1,3.87-1.05,7,7,0,0,1,5.44,2.33,8.94,8.94,0,0,1,2.08,6.2v.19a9.89,9.89,0,0,1-.92,4.32,7,7,0,0,1-2.64,3,7.28,7.28,0,0,1-3.93,1.07,7,7,0,0,1-5.43-2.33,8.93,8.93,0,0,1-2.07-6.16Zm2.83.33a7,7,0,0,0,1.27,4.4,4.31,4.31,0,0,0,6.81,0,7.71,7.71,0,0,0,1.26-4.71,7.06,7.06,0,0,0-1.28-4.39,4.1,4.1,0,0,0-3.42-1.68,4,4,0,0,0-3.36,1.66A7.56,7.56,0,0,0,525.93,596.77Z"/><path d="M544.9,588.36l.1,2.07a6,6,0,0,1,4.93-2.38c3.48,0,5.23,2,5.26,5.89v10.88h-2.81V593.93a3.73,3.73,0,0,0-.82-2.63,3.25,3.25,0,0,0-2.49-.86,4.11,4.11,0,0,0-2.4.73,4.94,4.94,0,0,0-1.61,1.92v11.73h-2.82V588.36Z"/><path d="M562.72,588.36l.1,2.07a6,6,0,0,1,4.93-2.38c3.48,0,5.23,2,5.26,5.89v10.88H570.2V593.93a3.78,3.78,0,0,0-.82-2.63,3.25,3.25,0,0,0-2.49-.86,4.11,4.11,0,0,0-2.4.73,4.94,4.94,0,0,0-1.61,1.92v11.73h-2.82V588.36Z"/><path d="M584.71,605.13a7.17,7.17,0,0,1-5.44-2.2,8.17,8.17,0,0,1-2.1-5.88v-.52a10,10,0,0,1,.93-4.38,7.4,7.4,0,0,1,2.62-3,6.61,6.61,0,0,1,3.64-1.09,6.16,6.16,0,0,1,5,2.12,9.15,9.15,0,0,1,1.79,6.06v1.17H580a5.89,5.89,0,0,0,1.42,3.93,4.49,4.49,0,0,0,3.47,1.5,4.85,4.85,0,0,0,2.52-.61,6.15,6.15,0,0,0,1.81-1.61l1.72,1.34A6.92,6.92,0,0,1,584.71,605.13Zm-.35-14.76a3.75,3.75,0,0,0-2.86,1.24,6,6,0,0,0-1.43,3.48h8.25v-.22a5.33,5.33,0,0,0-1.16-3.32A3.52,3.52,0,0,0,584.36,590.37Z"/><path d="M601.62,602.83a4,4,0,0,0,2.63-.91,3.22,3.22,0,0,0,1.25-2.29h2.66a5.08,5.08,0,0,1-1,2.7,6.48,6.48,0,0,1-2.4,2,7,7,0,0,1-3.17.76,6.77,6.77,0,0,1-5.35-2.25,8.94,8.94,0,0,1-2-6.14v-.47a9.92,9.92,0,0,1,.89-4.28,6.76,6.76,0,0,1,2.53-2.9,7.19,7.19,0,0,1,3.9-1,6.65,6.65,0,0,1,4.61,1.66,5.93,5.93,0,0,1,1.95,4.31H605.5a3.87,3.87,0,0,0-1.21-2.63,3.79,3.79,0,0,0-2.69-1,3.93,3.93,0,0,0-3.32,1.54,7.24,7.24,0,0,0-1.18,4.47v.53a7.09,7.09,0,0,0,1.17,4.38A4,4,0,0,0,601.62,602.83Z"/><path d="M615.77,584.37v4h3.08v2.17h-3.08v10.23a2.29,2.29,0,0,0,.41,1.48,1.74,1.74,0,0,0,1.4.5,6.88,6.88,0,0,0,1.34-.18v2.27a8.26,8.26,0,0,1-2.16.3,3.48,3.48,0,0,1-2.84-1.14,4.89,4.89,0,0,1-1-3.24V590.53h-3v-2.17h3v-4Z"/><path d="M641.26,604.82a6.19,6.19,0,0,1-.4-1.73,6.26,6.26,0,0,1-4.68,2,5.81,5.81,0,0,1-4-1.38,4.45,4.45,0,0,1-1.56-3.49,4.65,4.65,0,0,1,2-4,9.28,9.28,0,0,1,5.5-1.42h2.74v-1.29a3.18,3.18,0,0,0-.88-2.35,3.54,3.54,0,0,0-2.61-.88,4.14,4.14,0,0,0-2.52.76,2.24,2.24,0,0,0-1,1.84H631a3.91,3.91,0,0,1,.87-2.38,6.13,6.13,0,0,1,2.38-1.82,8.06,8.06,0,0,1,3.29-.67,6.51,6.51,0,0,1,4.46,1.43,5.14,5.14,0,0,1,1.67,3.92V601a9.35,9.35,0,0,0,.58,3.61v.24Zm-4.67-2.14a4.92,4.92,0,0,0,2.51-.69,4.14,4.14,0,0,0,1.72-1.78v-3.37h-2.21c-3.45,0-5.17,1-5.17,3a2.54,2.54,0,0,0,.88,2.07A3.38,3.38,0,0,0,636.59,602.68Z"/><path d="M663.61,602.83a4.05,4.05,0,0,0,2.64-.91,3.21,3.21,0,0,0,1.24-2.29h2.67a5.09,5.09,0,0,1-1,2.7,6.44,6.44,0,0,1-2.39,2,7,7,0,0,1-3.18.76,6.79,6.79,0,0,1-5.35-2.25,8.94,8.94,0,0,1-2-6.14v-.47a9.92,9.92,0,0,1,.88-4.28,6.76,6.76,0,0,1,2.53-2.9,7.25,7.25,0,0,1,3.91-1,6.63,6.63,0,0,1,4.6,1.66,5.94,5.94,0,0,1,2,4.31h-2.67a3.87,3.87,0,0,0-1.21-2.63,3.76,3.76,0,0,0-2.68-1,4,4,0,0,0-3.33,1.54,7.3,7.3,0,0,0-1.18,4.47v.53a7,7,0,0,0,1.18,4.38A3.93,3.93,0,0,0,663.61,602.83Z"/><path d="M684.11,604.82a5.92,5.92,0,0,1-.39-1.73,6.3,6.3,0,0,1-4.69,2,5.82,5.82,0,0,1-4-1.38,4.45,4.45,0,0,1-1.56-3.49,4.67,4.67,0,0,1,2-4,9.28,9.28,0,0,1,5.5-1.42h2.74v-1.29a3.14,3.14,0,0,0-.88-2.35,3.54,3.54,0,0,0-2.61-.88,4.14,4.14,0,0,0-2.52.76,2.24,2.24,0,0,0-1,1.84h-2.83a3.91,3.91,0,0,1,.87-2.38,6.13,6.13,0,0,1,2.38-1.82,8.1,8.1,0,0,1,3.29-.67,6.49,6.49,0,0,1,4.46,1.43,5.15,5.15,0,0,1,1.68,3.92V601a9.37,9.37,0,0,0,.57,3.61v.24Zm-4.67-2.14A4.92,4.92,0,0,0,682,602a4.14,4.14,0,0,0,1.72-1.78v-3.37h-2.21c-3.45,0-5.17,1-5.17,3a2.54,2.54,0,0,0,.88,2.07A3.4,3.4,0,0,0,679.44,602.68Z"/><path d="M694.17,588.36l.08,1.82a6.06,6.06,0,0,1,4.88-2.13c2.3,0,3.87.89,4.7,2.65a6.29,6.29,0,0,1,2.14-1.92,6.41,6.41,0,0,1,3.11-.73c3.61,0,5.45,1.92,5.51,5.74v11h-2.81V594a3.76,3.76,0,0,0-.81-2.64,3.57,3.57,0,0,0-2.71-.88,3.71,3.71,0,0,0-2.6.94,3.77,3.77,0,0,0-1.2,2.52v10.92h-2.83V594c0-2.39-1.18-3.59-3.52-3.59a3.77,3.77,0,0,0-3.79,2.36v12h-2.81V588.36Z"/><path d="M726.29,605.13a7.17,7.17,0,0,1-5.44-2.2,8.17,8.17,0,0,1-2.1-5.88v-.52a10,10,0,0,1,.93-4.38,7.4,7.4,0,0,1,2.62-3,6.63,6.63,0,0,1,3.64-1.09,6.19,6.19,0,0,1,5,2.12,9.2,9.2,0,0,1,1.78,6.06v1.17H721.56a5.89,5.89,0,0,0,1.42,3.93,4.49,4.49,0,0,0,3.47,1.5,4.85,4.85,0,0,0,2.52-.61,6.15,6.15,0,0,0,1.81-1.61L732.5,602A6.92,6.92,0,0,1,726.29,605.13Zm-.35-14.76a3.75,3.75,0,0,0-2.86,1.24,6,6,0,0,0-1.43,3.48h8.25v-.22a5.33,5.33,0,0,0-1.16-3.32A3.52,3.52,0,0,0,725.94,590.37Z"/><path d="M744.56,590.88a8.65,8.65,0,0,0-1.39-.1,3.7,3.7,0,0,0-3.76,2.36v11.68H736.6V588.36h2.74l0,1.9a4.39,4.39,0,0,1,3.93-2.21,2.8,2.8,0,0,1,1.25.22Z"/><path d="M757.46,604.82a5.85,5.85,0,0,1-.4-1.73,6.28,6.28,0,0,1-4.68,2,5.81,5.81,0,0,1-4-1.38,4.45,4.45,0,0,1-1.56-3.49,4.65,4.65,0,0,1,2-4,9.26,9.26,0,0,1,5.5-1.42H757v-1.29a3.14,3.14,0,0,0-.89-2.35,3.5,3.5,0,0,0-2.6-.88,4.14,4.14,0,0,0-2.52.76,2.24,2.24,0,0,0-1,1.84h-2.83a3.91,3.91,0,0,1,.87-2.38,6.05,6.05,0,0,1,2.38-1.82,8,8,0,0,1,3.29-.67,6.51,6.51,0,0,1,4.46,1.43,5.14,5.14,0,0,1,1.67,3.92V601a9.16,9.16,0,0,0,.58,3.61v.24Zm-4.67-2.14a4.92,4.92,0,0,0,2.51-.69,4.14,4.14,0,0,0,1.72-1.78v-3.37h-2.21c-3.45,0-5.17,1-5.17,3a2.54,2.54,0,0,0,.88,2.07A3.38,3.38,0,0,0,752.79,602.68Z"/><path d="M783.37,604.82a5.92,5.92,0,0,1-.39-1.73,6.28,6.28,0,0,1-4.69,2,5.8,5.8,0,0,1-4-1.38,4.45,4.45,0,0,1-1.56-3.49,4.66,4.66,0,0,1,2-4,9.3,9.3,0,0,1,5.5-1.42h2.74v-1.29a3.14,3.14,0,0,0-.88-2.35,3.53,3.53,0,0,0-2.6-.88,4.15,4.15,0,0,0-2.53.76,2.24,2.24,0,0,0-1,1.84h-2.83a3.86,3.86,0,0,1,.88-2.38,6,6,0,0,1,2.37-1.82,8.1,8.1,0,0,1,3.29-.67,6.49,6.49,0,0,1,4.46,1.43,5.11,5.11,0,0,1,1.68,3.92V601a9.16,9.16,0,0,0,.58,3.61v.24Zm-4.67-2.14a4.92,4.92,0,0,0,2.51-.69,4.09,4.09,0,0,0,1.72-1.78v-3.37h-2.21c-3.44,0-5.17,1-5.17,3a2.54,2.54,0,0,0,.88,2.07A3.4,3.4,0,0,0,778.7,602.68Z"/><path d="M793.45,588.36l.09,2.07a6,6,0,0,1,4.93-2.38c3.48,0,5.23,2,5.26,5.89v10.88h-2.81V593.93a3.78,3.78,0,0,0-.81-2.63,3.28,3.28,0,0,0-2.49-.86,4.11,4.11,0,0,0-2.41.73,4.94,4.94,0,0,0-1.61,1.92v11.73h-2.82V588.36Z"/><path d="M807.92,596.45a9.69,9.69,0,0,1,1.79-6.09A6.11,6.11,0,0,1,819,590v-8.58h2.81v23.37h-2.58l-.14-1.76a5.73,5.73,0,0,1-4.7,2.07,5.61,5.61,0,0,1-4.67-2.35,9.75,9.75,0,0,1-1.8-6.11Zm2.81.32a7.34,7.34,0,0,0,1.16,4.39,3.75,3.75,0,0,0,3.2,1.58,4.11,4.11,0,0,0,3.91-2.4v-7.57a4.16,4.16,0,0,0-3.88-2.33,3.78,3.78,0,0,0-3.23,1.6A8,8,0,0,0,810.73,596.77Z"/><path d="M839,584.37v4H842v2.17H839v10.23a2.29,2.29,0,0,0,.41,1.48,1.74,1.74,0,0,0,1.4.5,6.88,6.88,0,0,0,1.34-.18v2.27a8.26,8.26,0,0,1-2.16.3,3.48,3.48,0,0,1-2.84-1.14,4.89,4.89,0,0,1-1-3.24V590.53h-3v-2.17h3v-4Z"/><path d="M853.91,590.88a8.65,8.65,0,0,0-1.39-.1,3.7,3.7,0,0,0-3.76,2.36v11.68H846V588.36h2.74l0,1.9a4.39,4.39,0,0,1,3.93-2.21,2.8,2.8,0,0,1,1.25.22Z"/><path d="M862.78,600.7l3.83-12.34h3l-6.62,19q-1.53,4.11-4.88,4.11l-.53,0-1.05-.2V609l.76.06a3.74,3.74,0,0,0,2.23-.58,4.14,4.14,0,0,0,1.31-2.11l.63-1.68-5.88-16.28h3.08Z"/><path d="M891.26,604.82a5.92,5.92,0,0,1-.39-1.73,6.28,6.28,0,0,1-4.69,2,5.78,5.78,0,0,1-4-1.38,4.45,4.45,0,0,1-1.56-3.49,4.66,4.66,0,0,1,2-4,9.28,9.28,0,0,1,5.5-1.42h2.74v-1.29a3.14,3.14,0,0,0-.88-2.35,3.53,3.53,0,0,0-2.6-.88,4.15,4.15,0,0,0-2.53.76,2.24,2.24,0,0,0-1,1.84H881a3.86,3.86,0,0,1,.88-2.38,6,6,0,0,1,2.37-1.82,8.1,8.1,0,0,1,3.29-.67,6.49,6.49,0,0,1,4.46,1.43,5.11,5.11,0,0,1,1.68,3.92V601a9.16,9.16,0,0,0,.58,3.61v.24Zm-4.67-2.14a4.92,4.92,0,0,0,2.51-.69,4.09,4.09,0,0,0,1.72-1.78v-3.37h-2.21c-3.45,0-5.17,1-5.17,3a2.54,2.54,0,0,0,.88,2.07A3.4,3.4,0,0,0,886.59,602.68Z"/><path d="M898,596.45a9.72,9.72,0,0,1,1.78-6.12,6.13,6.13,0,0,1,9.42-.15l.14-1.82h2.57v16.07a6.72,6.72,0,0,1-1.89,5,7,7,0,0,1-5.09,1.84,8.61,8.61,0,0,1-3.49-.76,6.09,6.09,0,0,1-2.6-2.09l1.46-1.69a5.51,5.51,0,0,0,4.43,2.24,4.3,4.3,0,0,0,3.2-1.16,4.39,4.39,0,0,0,1.15-3.25v-1.42a5.77,5.77,0,0,1-4.61,2,5.63,5.63,0,0,1-4.68-2.33A10.19,10.19,0,0,1,898,596.45Zm2.83.32a7.4,7.4,0,0,0,1.14,4.38,3.73,3.73,0,0,0,3.2,1.59,4.12,4.12,0,0,0,3.91-2.42V592.8a4.17,4.17,0,0,0-3.88-2.36A3.75,3.75,0,0,0,902,592,8,8,0,0,0,900.83,596.77Z"/><path d="M927,604.82a5.54,5.54,0,0,1-.4-1.73,6.28,6.28,0,0,1-4.69,2,5.8,5.8,0,0,1-4-1.38,4.45,4.45,0,0,1-1.56-3.49,4.65,4.65,0,0,1,2-4,9.26,9.26,0,0,1,5.5-1.42h2.74v-1.29a3.14,3.14,0,0,0-.89-2.35,3.51,3.51,0,0,0-2.6-.88,4.12,4.12,0,0,0-2.52.76,2.23,2.23,0,0,0-1,1.84h-2.83a3.92,3.92,0,0,1,.88-2.38,6,6,0,0,1,2.37-1.82,8.11,8.11,0,0,1,3.3-.67,6.51,6.51,0,0,1,4.46,1.43,5.14,5.14,0,0,1,1.67,3.92V601a9.16,9.16,0,0,0,.58,3.61v.24Zm-4.67-2.14a5,5,0,0,0,2.51-.69,4.14,4.14,0,0,0,1.72-1.78v-3.37H924.3c-3.45,0-5.18,1-5.18,3a2.54,2.54,0,0,0,.89,2.07A3.38,3.38,0,0,0,922.28,602.68Z"/><path d="M934.37,584a1.69,1.69,0,0,1,.42-1.16,1.58,1.58,0,0,1,1.24-.47,1.62,1.62,0,0,1,1.25.47,1.7,1.7,0,0,1,.43,1.16,1.53,1.53,0,0,1-1.68,1.6,1.58,1.58,0,0,1-1.24-.46A1.61,1.61,0,0,1,934.37,584Zm3,20.83H934.6V588.36h2.82Z"/><path d="M945.21,588.36l.09,2.07a6,6,0,0,1,4.93-2.38c3.48,0,5.23,2,5.26,5.89v10.88h-2.81V593.93a3.73,3.73,0,0,0-.82-2.63,3.24,3.24,0,0,0-2.48-.86,4.11,4.11,0,0,0-2.41.73,4.94,4.94,0,0,0-1.61,1.92v11.73h-2.82V588.36Z"/><path d="M960.67,603.39a1.69,1.69,0,0,1,.42-1.16,1.56,1.56,0,0,1,1.24-.46,1.59,1.59,0,0,1,1.24.46,1.65,1.65,0,0,1,.43,1.16,1.59,1.59,0,0,1-.43,1.15,1.62,1.62,0,0,1-1.24.45,1.6,1.6,0,0,1-1.24-.45A1.63,1.63,0,0,1,960.67,603.39Zm2.84-4.85H961l-.2-15.87h3Z"/></g></svg>